<?xml version="1.0" standalone="no"?>
<!DOCTYPE svg PUBLIC "-//W3C//DTD SVG 20010904//EN"
 "http://www.w3.org/TR/2001/REC-SVG-20010904/DTD/svg10.dtd">
<svg version="1.0" xmlns="http://www.w3.org/2000/svg"
 width="224.000000pt" height="177.000000pt" viewBox="0 0 224.000000 177.000000"
 preserveAspectRatio="xMidYMid meet">

<g transform="translate(0.000000,177.000000) scale(0.100000,-0.100000)"
fill="#000000" stroke="none">
<path d="M0 885 l0 -885 1120 0 1120 0 0 885 0 885 -1120 0 -1120 0 0 -885z
m1328 729 c44 -18 97 -67 111 -103 6 -14 24 -78 41 -141 42 -154 53 -166 219
-221 153 -51 191 -69 224 -108 56 -67 60 -154 10 -225 -24 -34 -55 -55 -173
-116 -87 -46 -152 -86 -164 -102 -15 -22 -22 -54 -29 -145 -12 -152 -21 -185
-60 -230 -44 -50 -98 -73 -174 -73 -82 0 -98 7 -226 102 -170 124 -178 126
-395 77 -152 -34 -201 -33 -267 4 -64 37 -98 88 -103 155 -3 53 0 65 57 180
38 77 61 136 61 157 0 33 -43 106 -120 205 -44 57 -62 100 -62 150 0 75 47
142 123 174 46 19 72 20 245 11 205 -11 198 -13 334 120 63 63 131 121 150
129 46 20 151 20 198 0z"/>
<path d="M763 1055 c-26 -18 -38 -67 -23 -94 40 -77 150 -53 150 32 0 63 -74
99 -127 62z"/>
<path d="M1254 1055 c-8 -20 4 -35 27 -35 14 0 19 7 19 25 0 18 -5 25 -20 25
-11 0 -23 -7 -26 -15z"/>
<path d="M1177 748 c-40 -31 -41 -96 -2 -128 27 -23 85 -18 106 9 25 31 24 86
-1 111 -23 23 -77 27 -103 8z"/>
</g>
</svg>
