<?xml version="1.0" encoding="UTF-8"?>
<svg version="1.1" xmlns="http://www.w3.org/2000/svg" width="960" height="1109">
<path d="M0 0 C2.65527344 1.25244141 2.65527344 1.25244141 5.359375 2.8515625 C6.88884766 3.74584961 6.88884766 3.74584961 8.44921875 4.65820312 C9.53847656 5.30724609 10.62773437 5.95628906 11.75 6.625 C12.90697352 7.30502178 14.06453713 7.98404047 15.22265625 8.66210938 C17.62665148 10.07067324 20.02805773 11.48350641 22.42773438 12.89941406 C27.9283488 16.14016978 33.46603409 19.31666323 39 22.5 C41.16684034 23.74969892 43.3335065 24.99969989 45.5 26.25 C47.10875 27.178125 47.10875 27.178125 48.75 28.125 C105.625 60.9375 105.625 60.9375 162.5 93.75 C163.57266113 94.36883057 164.64532227 94.98766113 165.75048828 95.62524414 C167.91557071 96.87435518 170.08060982 98.12354129 172.24560547 99.37280273 C177.68615706 102.51202309 183.12747216 105.64990563 188.5703125 108.78515625 C199.02206199 114.80747329 209.46299548 120.84669337 219.875 126.9375 C228.55262241 132.01275123 237.26605568 137.02258767 246 142 C255.72115617 147.5400173 265.40894658 153.13374809 275.06689453 158.78344727 C285.59084625 164.93766742 296.15380137 171.02369996 306.71777344 177.10888672 C312.14659942 180.23680148 317.57319281 183.36858448 323 186.5 C325.16665583 187.75001879 327.3333225 189.00001878 329.5 190.25 C359.83333333 207.75 390.16666667 225.25 420.5 242.75 C421.57378906 243.3694751 422.64757812 243.9889502 423.75390625 244.62719727 C425.9076172 245.86976019 428.06126367 247.11243489 430.21484375 248.35522461 C435.23684262 251.25314623 440.25942807 254.15003349 445.28442383 257.04275513 C447.05045522 258.05947198 448.81627431 259.07655658 450.58203125 260.09375 C452.78734155 261.36400873 454.99304216 262.63359018 457.19921875 263.90234375 C458.20597656 264.48242188 459.21273437 265.0625 460.25 265.66015625 C461.12140625 266.16168213 461.9928125 266.66320801 462.890625 267.17993164 C463.91671875 267.7805542 464.9428125 268.38117676 466 269 C466.80812806 269.23808353 467.61625613 269.47616705 468.44887292 269.72146523 C471.86795972 271.03462472 473.62234196 272.17897942 476 275 C478.07079053 281.93692073 477.30226994 289.71603337 477.20254517 296.86740112 C477.2069045 299.17010531 477.21565771 301.47280468 477.22843683 303.77547753 C477.25084543 310.11323061 477.21073532 316.44930051 477.16065621 322.78683901 C477.11707896 328.91588129 477.13025669 335.04493644 477.13747464 341.17408638 C477.15061443 353.71245415 477.11719774 366.25029497 477.05730057 378.78850937 C476.99814203 391.20391318 476.95964363 403.61909754 476.94877243 416.03464127 C476.94808503 416.80642398 476.94739764 417.5782067 476.94668941 418.37337678 C476.94330611 422.29282784 476.94029226 426.2122791 476.93742065 430.13173057 C476.91641318 457.89754011 476.84903058 485.66306293 476.75439453 513.42871094 C476.66255967 540.40363031 476.59171902 567.37847125 476.54931641 594.35351562 C476.54800114 595.18491561 476.54668588 596.0163156 476.54533076 596.87290952 C476.53214563 605.22212498 476.51938748 613.57134105 476.50694217 621.92055764 C476.48157964 638.92906776 476.45336711 655.93757277 476.4234314 672.94607544 C476.4220585 673.72810903 476.4206856 674.51014262 476.41927109 675.3158742 C476.3272552 727.54403695 476.16859421 779.77203504 476 832 C475.4862702 832.28472357 474.9725404 832.56944714 474.44324303 832.86279869 C472.08735162 834.16889949 469.73190542 835.47580121 467.37646484 836.78271484 C466.56841904 837.23053818 465.76037323 837.67836151 464.92784119 838.13975525 C458.77778254 841.55319895 452.68434042 845.05289975 446.625 848.625 C437.7837872 853.81015861 428.90576314 858.92689019 420 864 C410.27856294 869.53951839 400.59104683 875.13375194 390.93310547 880.78344727 C380.40915375 886.93766742 369.84619863 893.02369996 359.28222656 899.10888672 C353.85340058 902.23680148 348.42680719 905.36858448 343 908.5 C340.83334417 909.75001879 338.6666775 911.00001878 336.5 912.25 C334.89125 913.178125 334.89125 913.178125 333.25 914.125 C115.50000001 1039.74999999 115.50000001 1039.74999999 112.24951172 1041.62524414 C110.08442929 1042.87435518 107.91939018 1044.12354129 105.75439453 1045.37280273 C100.31384294 1048.51202309 94.87252784 1051.64990563 89.4296875 1054.78515625 C78.97793684 1060.80747396 68.53709733 1066.84685089 58.125 1072.9375 C48.20696589 1078.73640706 38.25499423 1084.4750909 28.25976562 1090.13989258 C22.72349681 1093.28035619 17.21474491 1096.45336271 11.76953125 1099.75 C10.81135498 1100.32218262 9.85317871 1100.89436523 8.8659668 1101.48388672 C7.09041749 1102.54697057 5.32417967 1103.62582831 3.56958008 1104.72314453 C-2.1489309 1108.11838179 -2.1489309 1108.11838179 -6.1171875 1107.56640625 C-9.53711372 1105.70815365 -12.92656858 1103.83751973 -16.25 1101.8125 C-17.76618915 1100.90501595 -19.28316888 1099.99885194 -20.80078125 1099.09375 C-21.62916504 1098.59875 -22.45754883 1098.10375 -23.31103516 1097.59375 C-28.32667865 1094.6209771 -33.38418227 1091.72060528 -38.4375 1088.8125 C-39.54319336 1088.17546143 -40.64888672 1087.53842285 -41.78808594 1086.88208008 C-44.06024082 1085.57299343 -46.33254009 1084.26415738 -48.60498047 1082.95556641 C-54.0716998 1079.80667946 -59.53574887 1076.65316736 -65 1073.5 C-67.16665311 1072.2499765 -69.33331979 1070.99997653 -71.5 1069.75 C-195 998.5 -195 998.5 -318.5 927.25 C-319.57266113 926.63116943 -320.64532227 926.01233887 -321.75048828 925.37475586 C-323.91557071 924.12564482 -326.08060982 922.87645871 -328.24560547 921.62719727 C-333.68615706 918.48797691 -339.12747216 915.35009437 -344.5703125 912.21484375 C-355.02206199 906.19252671 -365.46299548 900.15330663 -375.875 894.0625 C-384.55262241 888.98724877 -393.26605568 883.97741233 -402 879 C-411.71460026 873.46371887 -421.3965154 867.8748637 -431.04711914 862.22753906 C-438.49353217 857.87186775 -445.96159627 853.55483349 -453.4375 849.25 C-460.99215577 844.8970873 -468.54205551 840.53682045 -476.0625 836.125 C-476.7649585 835.71411133 -477.46741699 835.30322266 -478.19116211 834.87988281 C-482.87936946 832.12063054 -482.87936946 832.12063054 -484 831 C-484.09907812 828.05690815 -484.1317423 825.13725332 -484.12304783 822.19369411 C-484.12420167 821.2538045 -484.12535552 820.31391489 -484.12654433 819.34554377 C-484.12921908 816.15429042 -484.12468182 812.96308619 -484.12025452 809.77183533 C-484.12069004 807.47758315 -484.12156461 805.18333102 -484.12284368 802.88907915 C-484.12509229 796.55205718 -484.12106239 790.21505193 -484.11606562 783.87803209 C-484.11172056 777.75609848 -484.1130248 771.63416479 -484.11374746 765.51223011 C-484.11506351 752.98326342 -484.11171184 740.454302 -484.10573006 727.92533684 C-484.09981968 715.51419995 -484.09596546 703.10306524 -484.09487724 690.69192696 C-484.0948085 689.92118689 -484.09473976 689.15044682 -484.09466894 688.35635099 C-484.09433062 684.44239498 -484.09402923 680.52843896 -484.09374207 676.61448295 C-484.09163982 648.86823128 -484.08489734 621.12198248 -484.07543945 593.37573242 C-484.06625995 566.4151206 -484.05917392 539.45450956 -484.05493164 512.49389648 C-484.05480011 511.66333292 -484.05466859 510.83276936 -484.05453308 509.97703721 C-484.05321459 501.63642648 -484.05193877 493.29581574 -484.05069422 484.955205 C-484.04815778 467.96334646 -484.04533653 450.97148798 -484.04234314 433.97962952 C-484.04220585 433.19831497 -484.04206856 432.41700041 -484.04192711 431.61200966 C-484.03272134 379.40800524 -484.0168548 327.20400245 -484 275 C-399.5 226.25 -399.5 226.25 -396.24951172 224.37475586 C-394.08442929 223.12564482 -391.91939018 221.87645871 -389.75439453 220.62719727 C-384.31384294 217.48797691 -378.87252784 214.35009437 -373.4296875 211.21484375 C-362.97793801 205.19252671 -352.53700452 199.15330663 -342.125 193.0625 C-332.85500223 187.64078822 -323.54168248 182.29795085 -314.21154785 176.98077393 C-305.0871716 171.77954871 -295.99867226 166.51972122 -286.93310547 161.21655273 C-276.40915375 155.06233258 -265.84619863 148.97630004 -255.28222656 142.89111328 C-249.85340058 139.76319852 -244.42680719 136.63141552 -239 133.5 C-236.83334417 132.24998121 -234.6666775 130.99998122 -232.5 129.75 C-231.4275 129.13125 -230.355 128.5125 -229.25 127.875 C-115.50000001 62.25 -115.50000001 62.25 -112.24951172 60.37475586 C-110.08442929 59.12564482 -107.91939018 57.87645871 -105.75439453 56.62719727 C-100.31384294 53.48797691 -94.87252784 50.35009437 -89.4296875 47.21484375 C-78.97793808 41.19252675 -68.53699707 35.15331935 -58.125 29.0625 C-48.05171347 23.170832 -37.93034386 17.36644069 -27.78955078 11.59204102 C-26.13802002 10.65122681 -26.13802002 10.65122681 -24.453125 9.69140625 C-23.38126953 9.08570801 -22.30941406 8.48000977 -21.20507812 7.85595703 C-19.01855744 6.58981365 -16.85617345 5.28128091 -14.71679688 3.93701172 C-13.67072266 3.28619629 -12.62464844 2.63538086 -11.546875 1.96484375 C-10.62229492 1.37179443 -9.69771484 0.77874512 -8.74511719 0.16772461 C-5.27905801 -1.30667605 -3.5915804 -1.0378611 0 0 Z " fill="#058ADA" transform="translate(484,1)"/>
<path d="M0 0 C3.61375545 2.99549849 5.15743348 6.9527692 6.62109375 11.34375 C10.29928504 54.99965969 -26.25289381 103.11520503 -49.37890625 137.34375 C-45.38508379 137.34375 -43.75576928 135.79529053 -40.44140625 133.59375 C-31.43545757 127.90419802 -23.21272395 125.03510556 -12.50390625 124.90625 C-11.43317871 124.89078125 -11.43317871 124.89078125 -10.34082031 124.875 C-3.99789115 124.98225479 -0.03820249 126.64674248 4.37109375 131.15625 C9.10050605 137.85625076 9.46948114 144.34092047 8.62109375 152.34375 C7.54448024 157.60936879 5.93713517 162.7409128 4.36962891 167.87695312 C3.09380294 172.08143635 1.89058368 176.30658719 0.68359375 180.53125 C0.43488525 181.39886963 0.18617676 182.26648926 -0.07006836 183.16040039 C-3.0212932 193.50812659 -5.7860634 203.90052154 -8.37890625 214.34375 C-8.56114746 215.06820312 -8.74338867 215.79265625 -8.93115234 216.5390625 C-11.45125449 226.76992494 -13.69668141 239.98908075 -10.37890625 250.34375 C-0.53033337 249.0214879 4.90342999 244.8111241 10.99609375 237.09375 C26.63417998 215.20042927 36.35435633 189.91373523 44.56765747 164.49453735 C57.32649089 125.08856152 57.32649089 125.08856152 73.62109375 115.34375 C77.42554993 113.54936639 80.38453479 113.10542632 84.578125 113.1484375 C85.68994141 113.15488281 86.80175781 113.16132813 87.94726562 113.16796875 C89.67299805 113.19310547 89.67299805 113.19310547 91.43359375 113.21875 C92.60341797 113.22777344 93.77324219 113.23679687 94.97851562 113.24609375 C97.85958428 113.26961268 100.74023364 113.30248148 103.62109375 113.34375 C102.11737173 117.4084394 100.15419618 121.03673723 98.02734375 124.80859375 C92.76544263 134.45422981 88.95834512 144.63062483 85.12109375 154.90625 C84.75113281 155.88788116 84.38117188 156.86951233 84 157.88088989 C71.86011366 189.59442708 71.86011366 189.59442708 67.43359375 222.96875 C67.42134766 223.71898437 67.40910156 224.46921875 67.39648438 225.2421875 C67.38624722 229.09135773 67.44030097 232.08549044 69.62109375 235.34375 C72.7706031 235.90904655 74.91708639 235.75112505 77.70703125 234.13671875 C80.13481576 232.31801 82.3793914 230.38743531 84.62109375 228.34375 C85.6884375 227.39435547 85.6884375 227.39435547 86.77734375 226.42578125 C100.00177979 213.27321714 107.09073242 193.6369349 114.98901367 176.97924805 C115.54951416 175.79886963 116.11001465 174.61849121 116.6875 173.40234375 C117.18193604 172.35361084 117.67637207 171.30487793 118.18579102 170.22436523 C119.62109375 167.34375 119.62109375 167.34375 121.22216797 164.78808594 C122.69815513 162.20910105 123.33654396 160.07625669 123.9375 157.17578125 C124.14439453 156.19931641 124.35128906 155.22285156 124.56445312 154.21679688 C124.76876953 153.20681641 124.97308594 152.19683594 125.18359375 151.15625 C125.39177734 150.16560547 125.59996094 149.17496094 125.81445312 148.15429688 C126.42831256 145.21970241 127.02684939 142.28237297 127.62109375 139.34375 C127.8109082 138.41747803 128.00072266 137.49120605 128.19628906 136.53686523 C128.37385742 135.66360596 128.55142578 134.79034668 128.734375 133.890625 C128.89075439 133.12202148 129.04713379 132.35341797 129.20825195 131.56152344 C131.00825463 121.89196441 130.72333223 112.13592436 130.62109375 102.34375 C136.26900237 101.07209057 141.79120828 101.0830839 147.55859375 101.03125 C149.16637695 100.98774414 149.16637695 100.98774414 150.80664062 100.94335938 C157.04539414 100.89314031 160.92536275 101.06117976 165.62109375 105.34375 C167.15375957 108.40908164 166.72385846 111.61129272 166.68359375 114.96875 C166.67908203 115.67515625 166.67457031 116.3815625 166.66992188 117.109375 C166.6581325 118.85420275 166.64019699 120.598987 166.62109375 122.34375 C167.07097656 121.94285156 167.52085937 121.54195313 167.984375 121.12890625 C184.3924139 106.62801416 200.79066272 93.75719652 223.8046875 94.0703125 C229.05860007 94.5804011 233.57013975 96.18485105 237.25390625 100.0625 C242.73657663 107.45627263 242.41600226 115.54734485 241.62109375 124.34375 C239.87841738 135.81692588 236.48820446 146.99423156 233.18359375 158.09375 C222.62441475 187.51792844 222.62441475 187.51792844 224.62109375 217.34375 C227.80097561 217.91449803 229.93565025 217.74516995 232.7421875 216.1015625 C255.15016999 199.24703148 271.66015461 163.74119766 277.57421875 136.6875 C281.47477612 119.22327605 290.74057086 99.34117408 305.74609375 88.859375 C315.09073528 83.49252007 326.97698183 82.07869348 337.62109375 82.34375 C338.3984375 84.4453125 338.3984375 84.4453125 338.62109375 87.34375 C337.22820745 89.67224675 335.86218913 91.61752954 334.18359375 93.71875 C320.11412158 112.50100341 311.58512769 135.49421887 306.14013672 158.21044922 C305.60696583 160.40181668 305.02272208 162.57592465 304.4375 164.75390625 C301.31773261 177.04326024 296.91175114 197.95459909 303.62109375 209.34375 C309.08780277 210.18478216 312.12714316 208.23761351 316.40234375 205.15234375 C343.44250177 183.11080649 357.33152769 138.91373154 366.37109375 106.84375 C369.42416149 96.17069176 372.93869181 87.55961298 382.62109375 81.34375 C386.23579277 79.88162455 389.78353536 78.99775643 393.62109375 78.34375 C394.68199219 78.158125 395.74289062 77.9725 396.8359375 77.78125 C401.43481241 77.2496979 405.93488627 77.23554034 410.55859375 77.28125 C411.43322266 77.28576172 412.30785156 77.29027344 413.20898438 77.29492188 C415.34638422 77.30660166 417.48374838 77.32453311 419.62109375 77.34375 C418.31699463 80.19949815 416.88993671 82.30708072 414.75 84.59375 C411.56638399 88.22664717 409.52846406 91.95608022 407.55859375 96.34375 C407.21844238 97.0872168 406.87829102 97.83068359 406.52783203 98.59667969 C396.22036628 121.60118045 391.10258982 147.01754008 385.08355713 171.40447998 C383.52657692 177.71223201 381.96532902 184.01892135 380.3984375 190.32421875 C380.23269604 190.9913879 380.06695457 191.65855705 379.89619064 192.34594345 C373.84059543 216.68524496 373.84059543 216.68524496 370.62109375 226.34375 C391.02954554 217.36403121 408.48566833 199.84782042 423.79663086 184.02978516 C434.28086189 173.24282026 448.04820137 159.24094547 463.43359375 156.71875 C467.67342608 157.55008967 468.95633597 158.97165251 471.62109375 162.34375 C472.15447267 165.25537141 472.33562287 167.44027103 472.24609375 170.34375 C472.230625 171.15553711 472.21515625 171.96732422 472.19921875 172.80371094 C470.40048726 219.72638905 449.49804011 260.06356316 417.62109375 293.34375 C416.55761719 294.46910156 416.55761719 294.46910156 415.47265625 295.6171875 C410.24698688 301.01349097 404.50591614 305.68719965 398.62109375 310.34375 C397.65558594 311.12621094 396.69007813 311.90867187 395.6953125 312.71484375 C370.67099607 332.58803024 341.63541305 346.77623954 311.62109375 357.34375 C310.74146973 357.6624707 309.8618457 357.98119141 308.95556641 358.30957031 C282.82805675 367.76562411 256.07221085 373.50511852 228.62109375 377.34375 C226.92339844 377.59366699 226.92339844 377.59366699 225.19140625 377.84863281 C216.82627973 379.03738561 208.46476942 379.82700905 200.04718018 380.53019714 C188.54136616 381.49908526 177.0597099 382.68724834 165.57666016 383.89331055 C161.86151023 384.28225331 158.14563205 384.66365532 154.4296875 385.04492188 C142.40057661 386.295616 130.44855858 387.70147397 118.51953125 389.69848633 C114.48799014 390.36578111 110.45597763 390.91539728 106.40161133 391.41918945 C93.33116564 393.04685989 80.49801665 395.60581877 67.62109375 398.34375 C66.51540039 398.57465332 65.40970703 398.80555664 64.27050781 399.04345703 C48.14848648 402.42058646 32.34371262 406.43077316 16.62109375 411.34375 C15.73260742 411.61799805 14.84412109 411.89224609 13.92871094 412.17480469 C-24.67558563 424.18216115 -59.1901917 442.37934995 -89.37890625 469.34375 C-90.18070313 470.05917969 -90.9825 470.77460937 -91.80859375 471.51171875 C-110.9890173 489.67340185 -126.28667666 515.62462272 -132.37890625 541.34375 C-134.1796875 541.14453125 -134.1796875 541.14453125 -136.37890625 540.34375 C-137.984375 538.26171875 -137.984375 538.26171875 -139.56640625 535.53125 C-145.26029166 526.15879896 -151.84010932 517.68342709 -159.27734375 509.6328125 C-161.12411808 507.6212702 -162.87878058 505.56372802 -164.62890625 503.46875 C-180.73323576 485.06380199 -201.99353364 470.85537643 -223.37890625 459.34375 C-224.28431152 458.85310059 -224.28431152 458.85310059 -225.20800781 458.35253906 C-258.23450059 440.63817219 -293.20437321 433.13154891 -330.37890625 432.34375 C-330.37890625 431.35375 -330.37890625 430.36375 -330.37890625 429.34375 C-294.23131694 411.84933117 -257.28760586 398.19202795 -218.44140625 387.90625 C-217.65297333 387.6965155 -216.86454041 387.48678101 -216.05221558 387.27069092 C-207.5693793 385.02649795 -199.10883365 382.99530995 -190.46670532 381.45802307 C-186.19187236 380.69676266 -181.95497932 379.82772331 -177.71548462 378.88978577 C-165.70899338 376.24897764 -153.62043559 374.48173274 -141.44140625 372.84375 C-140.32600464 372.69312103 -139.21060303 372.54249207 -138.06140137 372.38729858 C-73.32245703 363.70178617 -7.99727958 361.78616729 57.22692108 359.6894455 C104.38002913 358.17339546 151.45636228 356.43865314 198.40661621 351.57226562 C200.49627978 351.35662976 202.58637009 351.14598402 204.67675781 350.9375 C220.07255248 349.39107438 235.35484309 347.35130748 250.62060547 344.82470703 C253.36834181 344.38426435 256.11754369 343.99474563 258.875 343.62109375 C296.17566769 338.1931445 337.21224754 321.45120316 367.62109375 299.34375 C368.57628906 298.66054688 369.53148437 297.97734375 370.515625 297.2734375 C399.87054669 275.8054869 421.18331792 248.91763297 437.18359375 216.40625 C437.61349609 215.55474365 438.04339844 214.7032373 438.48632812 213.82592773 C441.57780883 207.36712079 442.62109375 201.47854539 442.62109375 194.34375 C429.37738902 195.71378842 419.00082305 206.7553786 409.15917969 214.94482422 C382.2963138 237.27405186 382.2963138 237.27405186 370.609375 242.18994141 C365.21957793 244.52063087 363.00151361 247.14271337 360.74609375 252.59375 C360.08323503 254.03551739 359.41373902 255.47424828 358.73828125 256.91015625 C358.39506836 257.64508301 358.05185547 258.38000977 357.69824219 259.13720703 C351.84383706 271.12997982 343.95416081 280.91735227 334.62109375 290.34375 C334.0075 291.01792969 333.39390625 291.69210937 332.76171875 292.38671875 C318.51992855 307.79182349 295.80549981 317.74743342 275.01953125 318.58203125 C264.90694036 318.80332866 256.06506709 318.41027676 246.62109375 314.34375 C245.37972656 313.8178125 245.37972656 313.8178125 244.11328125 313.28125 C237.99749939 310.29591919 233.62787908 305.80197287 229.62109375 300.34375 C227.7621073 294.76679064 227.64152872 288.50734521 229.38671875 282.87109375 C238.18811122 265.29929963 260.54653985 257.23433467 278.02734375 251.16015625 C281.20919341 250.14810753 284.40070242 249.22520165 287.62109375 248.34375 C288.74644531 248.02921875 289.87179687 247.7146875 291.03125 247.390625 C304.0647509 243.93695284 317.35440559 241.70240176 330.62109375 239.34375 C330.94384277 238.27938721 331.2665918 237.21502441 331.59912109 236.1184082 C332.80084651 232.15744719 334.00546179 228.19736993 335.2109375 224.23754883 C335.73157952 222.52587342 336.25144488 220.81396157 336.77050781 219.10180664 C337.51812352 216.63625025 338.26855798 214.17156675 339.01953125 211.70703125 C339.24982025 210.94538162 339.48010925 210.18373199 339.71737671 209.39900208 C340.86639173 205.63797985 342.08531936 201.9700581 343.62109375 198.34375 C339.89581547 199.58550943 339.36284656 200.82095285 337.18359375 204.03125 C316.64562733 232.95743347 316.64562733 232.95743347 300.62109375 236.34375 C299.84378906 236.52292969 299.06648437 236.70210937 298.265625 236.88671875 C291.88654634 237.98915923 285.13959133 238.48852163 279.18359375 235.78125 C278.33796875 234.976875 277.49234375 234.1725 276.62109375 233.34375 C276.11191406 232.88097656 275.60273437 232.41820312 275.078125 231.94140625 C268.53898539 225.33768255 266.45872775 216.85603562 266.35302734 207.79272461 C266.37894432 204.6382084 266.47712095 201.49515454 266.62109375 198.34375 C265.63109375 198.34375 264.64109375 198.34375 263.62109375 198.34375 C263.39164063 199.1584375 263.1621875 199.973125 262.92578125 200.8125 C257.95071063 214.27796059 248.29844423 225.95905081 238.62109375 236.34375 C237.82703125 237.21902344 237.03296875 238.09429688 236.21484375 238.99609375 C228.30114138 247.36957108 219.38531071 253.2547414 207.68359375 253.71875 C201.3536095 253.59340378 197.77601265 252.42274839 193.16015625 247.91796875 C186.004563 239.91445838 186.12338936 229.88896686 186.48925781 219.69433594 C187.40606937 203.34792536 190.92484003 187.48206873 194.81835938 171.62988281 C195.6199371 168.34848494 196.39747238 165.06226107 197.16796875 161.7734375 C199.59716538 151.44565472 202.07686607 141.15698801 205.14868164 130.99804688 C206.31758405 127.01361432 207.11355664 123.49365067 206.62109375 119.34375 C205.4794955 117.4205475 205.4794955 117.4205475 203.62109375 116.34375 C194.57989448 115.0521501 187.67555315 118.69480872 180.4296875 123.92578125 C150.7821413 150.45883775 143.98675495 204.30307169 136.8828125 240.921875 C135.88098615 246.08449409 134.79273697 251.21712333 133.62109375 256.34375 C122.24360402 259.39273124 109.33552374 258.4839493 97.62109375 258.34375 C97.28651589 252.22097521 98.52768088 246.98507109 100.12109375 241.09375 C100.59295477 239.31853234 101.06183976 237.54252021 101.52734375 235.765625 C101.73681641 234.98799805 101.94628906 234.21037109 102.16210938 233.40917969 C102.72955898 231.20829204 102.72955898 231.20829204 102.62109375 228.34375 C101.91146484 229.55998047 101.91146484 229.55998047 101.1875 230.80078125 C96.56034099 238.54879215 91.51239304 245.4797784 85.62109375 252.34375 C85.10933594 252.98957031 84.59757812 253.63539063 84.0703125 254.30078125 C77.20932182 262.86252455 68.55709041 269.07632238 57.99609375 272.09375 C51.97898444 272.72712993 47.7893885 272.75262526 42.62109375 269.34375 C33.95649339 261.16521259 31.86106584 251.04608002 31.5 239.45703125 C31.49658869 236.08324799 31.53129396 232.71623107 31.62109375 229.34375 C29.48527503 231.3442026 27.97008905 233.23210733 26.5625 235.79296875 C26.18270996 236.4684375 25.80291992 237.14390625 25.41162109 237.83984375 C25.00637207 238.56300781 24.60112305 239.28617188 24.18359375 240.03125 C19.01364849 249.02985379 13.0733852 257.22954036 6.62109375 265.34375 C5.93402344 266.22933594 5.24695313 267.11492187 4.5390625 268.02734375 C-2.41349221 276.47286811 -12.44296527 284.40837234 -23.52734375 285.71484375 C-30.8148622 285.864829 -35.91089473 285.41925575 -41.37890625 280.34375 C-49.78498153 271.02890983 -49.05905252 256.77335817 -48.54296875 244.99804688 C-47.15389257 222.52477863 -40.96643794 200.52809867 -34.0949707 179.1965332 C-31.54986518 171.24347405 -29.04251384 163.21397449 -29.19140625 154.78125 C-29.19785156 153.95496094 -29.20429688 153.12867188 -29.2109375 152.27734375 C-29.17057019 150.33766645 -29.17057019 150.33766645 -30.37890625 149.34375 C-37.90613034 148.00557683 -43.37529241 152.18799176 -49.37890625 156.34375 C-74.95481167 176.28927624 -84.08142446 209.35873824 -90.27340698 239.85134888 C-93.58177113 256.11539939 -97.37581205 272.2375938 -101.37890625 288.34375 C-105.50339475 288.68361581 -109.62856303 289.01443458 -113.75390625 289.34375 C-114.91019531 289.43914062 -116.06648437 289.53453125 -117.2578125 289.6328125 C-123.98278318 290.16473108 -130.63295812 290.48256345 -137.37890625 290.34375 C-136.66058908 284.32285177 -135.28050525 278.56379516 -133.7890625 272.69140625 C-133.39889954 271.13725761 -133.39889954 271.13725761 -133.00085449 269.55171204 C-132.4416985 267.3263734 -131.88090641 265.10144535 -131.31863403 262.87689209 C-130.43242507 259.37071707 -129.55050468 255.86348771 -128.66967773 252.35595703 C-127.18719358 246.45516763 -125.7012237 240.55526364 -124.21386719 234.65570068 C-122.11856963 226.34450686 -120.02655329 218.0324965 -117.94140625 209.71875 C-117.63455399 208.49626556 -117.63455399 208.49626556 -117.32150269 207.24908447 C-114.53848354 196.14954481 -111.84530051 185.0360621 -109.35375977 173.86669922 C-107.58034696 165.96587775 -105.50776101 158.15537545 -103.37890625 150.34375 C-102.88269775 148.51541626 -102.88269775 148.51541626 -102.37646484 146.65014648 C-70.55849705 30.14137127 -70.55849705 30.14137127 -34.37890625 4.34375 C-23.89266235 -1.63679168 -11.50122242 -6.69509829 0 0 Z " fill="#E4F2FA" transform="translate(408.37890625,300.65625)"/>
<path d="M0 0 C2.65527344 1.25244141 2.65527344 1.25244141 5.359375 2.8515625 C6.88884766 3.74584961 6.88884766 3.74584961 8.44921875 4.65820312 C9.53847656 5.30724609 10.62773437 5.95628906 11.75 6.625 C12.90697352 7.30502178 14.06453713 7.98404047 15.22265625 8.66210938 C17.62665148 10.07067324 20.02805773 11.48350641 22.42773438 12.89941406 C27.9283488 16.14016978 33.46603409 19.31666323 39 22.5 C41.16684034 23.74969892 43.3335065 24.99969989 45.5 26.25 C47.10875 27.178125 47.10875 27.178125 48.75 28.125 C105.625 60.9375 105.625 60.9375 162.5 93.75 C163.57266113 94.36883057 164.64532227 94.98766113 165.75048828 95.62524414 C167.91557071 96.87435518 170.08060982 98.12354129 172.24560547 99.37280273 C177.68615706 102.51202309 183.12747216 105.64990563 188.5703125 108.78515625 C199.02206199 114.80747329 209.46299548 120.84669337 219.875 126.9375 C228.55262241 132.01275123 237.26605568 137.02258767 246 142 C255.72115617 147.5400173 265.40894658 153.13374809 275.06689453 158.78344727 C285.59084625 164.93766742 296.15380137 171.02369996 306.71777344 177.10888672 C312.14659942 180.23680148 317.57319281 183.36858448 323 186.5 C325.16665583 187.75001879 327.3333225 189.00001878 329.5 190.25 C359.83333333 207.75 390.16666667 225.25 420.5 242.75 C421.57378906 243.3694751 422.64757812 243.9889502 423.75390625 244.62719727 C425.9076172 245.86976019 428.06126367 247.11243489 430.21484375 248.35522461 C435.23684262 251.25314623 440.25942807 254.15003349 445.28442383 257.04275513 C447.05045522 258.05947198 448.81627431 259.07655658 450.58203125 260.09375 C452.78734155 261.36400873 454.99304216 262.63359018 457.19921875 263.90234375 C458.20597656 264.48242188 459.21273437 265.0625 460.25 265.66015625 C461.12140625 266.16168213 461.9928125 266.66320801 462.890625 267.17993164 C463.91671875 267.7805542 464.9428125 268.38117676 466 269 C466.80812806 269.23808353 467.61625613 269.47616705 468.44887292 269.72146523 C471.86795972 271.03462472 473.62234196 272.17897942 476 275 C478.07079053 281.93692073 477.30226994 289.71603337 477.20254517 296.86740112 C477.2069045 299.17010531 477.21565771 301.47280468 477.22843683 303.77547753 C477.25084543 310.11323061 477.21073532 316.44930051 477.16065621 322.78683901 C477.11707896 328.91588129 477.13025669 335.04493644 477.13747464 341.17408638 C477.15061443 353.71245415 477.11719774 366.25029497 477.05730057 378.78850937 C476.99814203 391.20391318 476.95964363 403.61909754 476.94877243 416.03464127 C476.94808503 416.80642398 476.94739764 417.5782067 476.94668941 418.37337678 C476.94330611 422.29282784 476.94029226 426.2122791 476.93742065 430.13173057 C476.91641318 457.89754011 476.84903058 485.66306293 476.75439453 513.42871094 C476.66255967 540.40363031 476.59171902 567.37847125 476.54931641 594.35351562 C476.54800114 595.18491561 476.54668588 596.0163156 476.54533076 596.87290952 C476.53214563 605.22212498 476.51938748 613.57134105 476.50694217 621.92055764 C476.48157964 638.92906776 476.45336711 655.93757277 476.4234314 672.94607544 C476.4220585 673.72810903 476.4206856 674.51014262 476.41927109 675.3158742 C476.3272552 727.54403695 476.16859421 779.77203504 476 832 C475.4862702 832.28472357 474.9725404 832.56944714 474.44324303 832.86279869 C472.08735162 834.16889949 469.73190542 835.47580121 467.37646484 836.78271484 C466.56841904 837.23053818 465.76037323 837.67836151 464.92784119 838.13975525 C458.77778254 841.55319895 452.68434042 845.05289975 446.625 848.625 C437.7837872 853.81015861 428.90576314 858.92689019 420 864 C410.27856294 869.53951839 400.59104683 875.13375194 390.93310547 880.78344727 C380.40915375 886.93766742 369.84619863 893.02369996 359.28222656 899.10888672 C353.85340058 902.23680148 348.42680719 905.36858448 343 908.5 C340.83334417 909.75001879 338.6666775 911.00001878 336.5 912.25 C334.89125 913.178125 334.89125 913.178125 333.25 914.125 C115.50000001 1039.74999999 115.50000001 1039.74999999 112.24951172 1041.62524414 C110.08442929 1042.87435518 107.91939018 1044.12354129 105.75439453 1045.37280273 C100.31384294 1048.51202309 94.87252784 1051.64990563 89.4296875 1054.78515625 C78.97793684 1060.80747396 68.53709733 1066.84685089 58.125 1072.9375 C48.20696589 1078.73640706 38.25499423 1084.4750909 28.25976562 1090.13989258 C22.72349681 1093.28035619 17.21474491 1096.45336271 11.76953125 1099.75 C10.81135498 1100.32218262 9.85317871 1100.89436523 8.8659668 1101.48388672 C7.09041749 1102.54697057 5.32417967 1103.62582831 3.56958008 1104.72314453 C-2.1489309 1108.11838179 -2.1489309 1108.11838179 -6.1171875 1107.56640625 C-9.53711372 1105.70815365 -12.92656858 1103.83751973 -16.25 1101.8125 C-17.76618915 1100.90501595 -19.28316888 1099.99885194 -20.80078125 1099.09375 C-21.62916504 1098.59875 -22.45754883 1098.10375 -23.31103516 1097.59375 C-28.32667865 1094.6209771 -33.38418227 1091.72060528 -38.4375 1088.8125 C-39.54319336 1088.17546143 -40.64888672 1087.53842285 -41.78808594 1086.88208008 C-44.06024082 1085.57299343 -46.33254009 1084.26415738 -48.60498047 1082.95556641 C-54.0716998 1079.80667946 -59.53574887 1076.65316736 -65 1073.5 C-67.16665311 1072.2499765 -69.33331979 1070.99997653 -71.5 1069.75 C-195 998.5 -195 998.5 -318.5 927.25 C-319.57266113 926.63116943 -320.64532227 926.01233887 -321.75048828 925.37475586 C-323.91557071 924.12564482 -326.08060982 922.87645871 -328.24560547 921.62719727 C-333.68615706 918.48797691 -339.12747216 915.35009437 -344.5703125 912.21484375 C-355.02206199 906.19252671 -365.46299548 900.15330663 -375.875 894.0625 C-384.55262241 888.98724877 -393.26605568 883.97741233 -402 879 C-411.71460026 873.46371887 -421.3965154 867.8748637 -431.04711914 862.22753906 C-438.49353217 857.87186775 -445.96159627 853.55483349 -453.4375 849.25 C-460.99215577 844.8970873 -468.54205551 840.53682045 -476.0625 836.125 C-476.7649585 835.71411133 -477.46741699 835.30322266 -478.19116211 834.87988281 C-482.87936946 832.12063054 -482.87936946 832.12063054 -484 831 C-484.09907812 828.05690815 -484.1317423 825.13725332 -484.12304783 822.19369411 C-484.12420167 821.2538045 -484.12535552 820.31391489 -484.12654433 819.34554377 C-484.12921908 816.15429042 -484.12468182 812.96308619 -484.12025452 809.77183533 C-484.12069004 807.47758315 -484.12156461 805.18333102 -484.12284368 802.88907915 C-484.12509229 796.55205718 -484.12106239 790.21505193 -484.11606562 783.87803209 C-484.11172056 777.75609848 -484.1130248 771.63416479 -484.11374746 765.51223011 C-484.11506351 752.98326342 -484.11171184 740.454302 -484.10573006 727.92533684 C-484.09981968 715.51419995 -484.09596546 703.10306524 -484.09487724 690.69192696 C-484.0948085 689.92118689 -484.09473976 689.15044682 -484.09466894 688.35635099 C-484.09433062 684.44239498 -484.09402923 680.52843896 -484.09374207 676.61448295 C-484.09163982 648.86823128 -484.08489734 621.12198248 -484.07543945 593.37573242 C-484.06625995 566.4151206 -484.05917392 539.45450956 -484.05493164 512.49389648 C-484.05480011 511.66333292 -484.05466859 510.83276936 -484.05453308 509.97703721 C-484.05321459 501.63642648 -484.05193877 493.29581574 -484.05069422 484.955205 C-484.04815778 467.96334646 -484.04533653 450.97148798 -484.04234314 433.97962952 C-484.04220585 433.19831497 -484.04206856 432.41700041 -484.04192711 431.61200966 C-484.03272134 379.40800524 -484.0168548 327.20400245 -484 275 C-399.5 226.25 -399.5 226.25 -396.24951172 224.37475586 C-394.08442929 223.12564482 -391.91939018 221.87645871 -389.75439453 220.62719727 C-384.31384294 217.48797691 -378.87252784 214.35009437 -373.4296875 211.21484375 C-362.97793801 205.19252671 -352.53700452 199.15330663 -342.125 193.0625 C-332.85500223 187.64078822 -323.54168248 182.29795085 -314.21154785 176.98077393 C-305.0871716 171.77954871 -295.99867226 166.51972122 -286.93310547 161.21655273 C-276.40915375 155.06233258 -265.84619863 148.97630004 -255.28222656 142.89111328 C-249.85340058 139.76319852 -244.42680719 136.63141552 -239 133.5 C-236.83334417 132.24998121 -234.6666775 130.99998122 -232.5 129.75 C-231.4275 129.13125 -230.355 128.5125 -229.25 127.875 C-115.50000001 62.25 -115.50000001 62.25 -112.24951172 60.37475586 C-110.08442929 59.12564482 -107.91939018 57.87645871 -105.75439453 56.62719727 C-100.31384294 53.48797691 -94.87252784 50.35009437 -89.4296875 47.21484375 C-78.97793808 41.19252675 -68.53699707 35.15331935 -58.125 29.0625 C-48.05171347 23.170832 -37.93034386 17.36644069 -27.78955078 11.59204102 C-26.13802002 10.65122681 -26.13802002 10.65122681 -24.453125 9.69140625 C-23.38126953 9.08570801 -22.30941406 8.48000977 -21.20507812 7.85595703 C-19.01855744 6.58981365 -16.85617345 5.28128091 -14.71679688 3.93701172 C-13.67072266 3.28619629 -12.62464844 2.63538086 -11.546875 1.96484375 C-10.62229492 1.37179443 -9.69771484 0.77874512 -8.74511719 0.16772461 C-5.27905801 -1.30667605 -3.5915804 -1.0378611 0 0 Z M-12.6875 35.125 C-13.87303467 35.79281494 -13.87303467 35.79281494 -15.08251953 36.47412109 C-22.56733701 40.70969309 -29.98902159 45.054895 -37.40893555 49.40283203 C-45.24202348 53.9895818 -53.11288472 58.50715629 -61 63 C-70.72143706 68.53951839 -80.40895317 74.13375194 -90.06689453 79.78344727 C-100.59084625 85.93766742 -111.15380137 92.02369996 -121.71777344 98.10888672 C-127.14659942 101.23680148 -132.57319281 104.36858448 -138 107.5 C-140.16665583 108.75001879 -142.3333225 110.00001878 -144.5 111.25 C-145.5725 111.86875 -146.645 112.4875 -147.75 113.125 C-209.5 148.75 -209.5 148.75 -212.75048828 150.62524414 C-214.91557071 151.87435518 -217.08060982 153.12354129 -219.24560547 154.37280273 C-224.68615706 157.51202309 -230.12747216 160.64990563 -235.5703125 163.78515625 C-246.06232094 169.83055159 -256.54481676 175.89110219 -267 182 C-278.54729516 188.74701194 -290.12902027 195.43339318 -301.71777344 202.10888672 C-307.14659942 205.23680148 -312.57319281 208.36858448 -318 211.5 C-320.16665583 212.75001879 -322.3333225 214.00001878 -324.5 215.25 C-325.5725 215.86875 -326.645 216.4875 -327.75 217.125 C-337.5 222.75 -337.5 222.75 -340.75048828 224.62524414 C-342.91557071 225.87435518 -345.08060982 227.12354129 -347.24560547 228.37280273 C-352.68615706 231.51202309 -358.12747216 234.64990563 -363.5703125 237.78515625 C-374.06232131 243.8305518 -384.54478712 249.89115248 -395 256 C-411.61819866 265.7089385 -428.29312755 275.31951047 -445 284.875 C-445.88453857 285.38111816 -446.76907715 285.88723633 -447.68041992 286.40869141 C-448.89048706 287.09970947 -448.89048706 287.09970947 -450.125 287.8046875 C-451.18074219 288.40772705 -451.18074219 288.40772705 -452.2578125 289.02294922 C-453.48829684 289.71302746 -454.73816018 290.36908009 -456 291 C-456 463.92 -456 636.84 -456 815 C-447.42 819.95 -438.84 824.9 -430 830 C-418.125 836.9375 -418.125 836.9375 -412.1953125 840.40234375 C-405.48661476 844.30874232 -398.74468512 848.15625224 -392 852 C-382.27884383 857.5400173 -372.59105342 863.13374809 -362.93310547 868.78344727 C-352.40915375 874.93766742 -341.84619863 881.02369996 -331.28222656 887.10888672 C-325.85340058 890.23680148 -320.42680719 893.36858448 -315 896.5 C-312.83334417 897.75001879 -310.6666775 899.00001878 -308.5 900.25 C-243.5 937.75 -178.5 975.25 -113.5 1012.75 C-112.42733887 1013.36883057 -111.35467773 1013.98766113 -110.24951172 1014.62524414 C-108.08442929 1015.87435518 -105.91939018 1017.12354129 -103.75439453 1018.37280273 C-98.31384294 1021.51202309 -92.87252784 1024.64990563 -87.4296875 1027.78515625 C-76.00244934 1034.36955163 -64.59358253 1040.98330829 -53.20996094 1047.64282227 C-44.04826068 1052.9921852 -34.83723196 1058.25390965 -25.61376953 1063.49584961 C-24.50630371 1064.12628174 -23.39883789 1064.75671387 -22.2578125 1065.40625 C-21.19594727 1066.00695313 -20.13408203 1066.60765625 -19.04003906 1067.2265625 C-17.05620192 1068.38385394 -15.09749689 1069.58567685 -13.17089844 1070.8359375 C-12.30754883 1071.39539062 -11.44419922 1071.95484375 -10.5546875 1072.53125 C-9.81460449 1073.03205078 -9.07452148 1073.53285156 -8.31201172 1074.04882812 C-5.13104749 1075.35749092 -3.29093237 1074.89819748 0 1074 C2.70765929 1072.77325824 2.70765929 1072.77325824 5.359375 1071.1484375 C6.37902344 1070.55224609 7.39867187 1069.95605469 8.44921875 1069.34179688 C9.53847656 1068.69275391 10.62773437 1068.04371094 11.75 1067.375 C12.90697352 1066.69497822 14.06453713 1066.01595953 15.22265625 1065.33789062 C17.62665148 1063.92932676 20.02805773 1062.51649359 22.42773438 1061.10058594 C27.9283488 1057.85983022 33.46603409 1054.68333677 39 1051.5 C41.16684034 1050.25030108 43.3335065 1049.00030011 45.5 1047.75 C214.5 950.25 214.5 950.25 217.75048828 948.37475586 C219.91557071 947.12564482 222.08060982 945.87645871 224.24560547 944.62719727 C229.68615706 941.48797691 235.12747216 938.35009437 240.5703125 935.21484375 C251.02206199 929.19252671 261.46299548 923.15330663 271.875 917.0625 C281.14499777 911.64078822 290.45831752 906.29795085 299.78845215 900.98077393 C308.9128284 895.77954871 318.00132774 890.51972122 327.06689453 885.21655273 C337.59084625 879.06233258 348.15380137 872.97630004 358.71777344 866.89111328 C364.14659942 863.76319852 369.57319281 860.63141552 375 857.5 C377.16665583 856.24998121 379.3333225 854.99998122 381.5 853.75 C383.10875 852.821875 383.10875 852.821875 384.75 851.875 C394.50000001 846.25 394.50000001 846.25 397.75439453 844.37255859 C399.9065213 843.13088473 402.05854073 841.88902478 404.21044922 840.64697266 C409.25030977 837.73833177 414.29117492 834.83148102 419.33599854 831.93145752 C421.11749578 830.90724335 422.89864322 829.88242349 424.6796875 828.85742188 C426.91076625 827.57366625 429.14249573 826.29104061 431.375 825.00976562 C432.38820313 824.42646484 433.40140625 823.84316406 434.4453125 823.2421875 C435.32719238 822.7354248 436.20907227 822.22866211 437.11767578 821.70654297 C438.06884277 821.14338379 439.02000977 820.58022461 440 820 C440.65867536 819.68577001 441.31735073 819.37154001 441.99598595 819.0477879 C446.20712823 816.91693734 446.20712823 816.91693734 448.7443077 813.1323067 C449.03256589 810.80093192 449.06208203 808.58247658 449.00952244 806.2336359 C449.02144956 805.34664482 449.03337668 804.45965374 449.04566523 803.54578415 C449.0759956 800.55744363 449.04906777 797.57233817 449.02259827 794.58399963 C449.03252736 792.42667166 449.04594264 790.26935737 449.0625543 788.1120705 C449.09799969 782.17159962 449.0832756 776.23213681 449.0604564 770.29164255 C449.04445824 763.88997559 449.07435426 757.48850253 449.09837341 751.08688354 C449.13558403 739.26667041 449.13611636 727.44681447 449.11751108 715.6265669 C449.10038746 704.70702586 449.09768402 693.78760386 449.10946465 682.86805534 C449.11022085 682.14421042 449.11097706 681.42036551 449.11175618 680.67458589 C449.11482857 677.7363764 449.11794696 674.79816696 449.121148 671.85995761 C449.15084436 644.28664637 449.13302787 616.71354052 449.0946087 589.14024996 C449.0607789 564.63592441 449.07125441 540.13198596 449.1184082 515.62768555 C449.17123449 488.10687083 449.19472559 460.58627867 449.17215914 433.06541485 C449.16983943 430.13219675 449.16760085 427.19897861 449.16540337 424.26576042 C449.16483817 423.54350976 449.16427297 422.8212591 449.16369065 422.07712205 C449.15569523 411.1643514 449.17034389 400.2517603 449.19609261 389.33902168 C449.22527012 376.93136729 449.22176274 364.52426845 449.17761797 352.11664147 C449.15591129 345.78256031 449.14878832 339.44934037 449.18051529 333.11528206 C449.20913892 327.32090579 449.19648958 321.52816646 449.15038829 315.73391639 C449.14099963 313.63371525 449.14692037 311.53338067 449.16937888 309.43327863 C449.77631537 298.86245166 449.77631537 298.86245166 446.02781379 289.47307193 C443.70491513 287.88739948 441.6482837 286.91213354 439 286 C437.49179688 285.10522949 437.49179688 285.10522949 435.953125 284.19238281 C435.06109375 283.70092773 434.1690625 283.20947266 433.25 282.703125 C432.2386499 282.14238281 431.2272998 281.58164062 430.18530273 281.00390625 C429.13415283 280.42511719 428.08300293 279.84632813 427 279.25 C417.68329984 274.07608924 408.45190972 268.79152989 399.28808594 263.35302734 C394.72390247 260.65406183 390.14263462 257.98427591 385.5625 255.3125 C384.04450806 254.42691406 384.04450806 254.42691406 382.49584961 253.5234375 C373.91714025 248.52417396 365.31690495 243.56266047 356.71313477 238.60668945 C349.46191203 234.42738667 342.22588471 230.22294284 335 226 C323.45277514 219.25286886 311.87097881 212.5666063 300.28222656 205.89111328 C294.85340058 202.76319852 289.42680719 199.63141552 284 196.5 C281.83334417 195.24998121 279.6666775 193.99998122 277.5 192.75 C255.83333333 180.25 234.16666667 167.75 212.5 155.25 C211.42733887 154.63116943 210.35467773 154.01233887 209.24951172 153.37475586 C207.08442929 152.12564482 204.91939018 150.87645871 202.75439453 149.62719727 C197.31384294 146.48797691 191.87252784 143.35009437 186.4296875 140.21484375 C175.97793801 134.19252671 165.53700452 128.15330663 155.125 122.0625 C146.44737759 116.98724877 137.73394432 111.97741233 129 107 C119.27884383 101.4599827 109.59105342 95.86625191 99.93310547 90.21655273 C89.40915375 84.06233258 78.84619863 77.97630004 68.28222656 71.89111328 C61.77782059 68.14348395 55.27624205 64.39095039 48.7746582 60.63842773 C43.22313708 57.43467538 37.66979203 54.23415423 32.11328125 51.0390625 C29.84629246 49.73448223 27.57936438 48.42979644 25.3125 47.125 C24.22831787 46.50165771 23.14413574 45.87831543 22.02709961 45.23608398 C15.37977341 41.40445758 8.76685072 37.52333402 2.27270508 33.43603516 C-3.85082436 29.65900882 -6.88553549 31.8122939 -12.6875 35.125 Z " fill="#0078BE" transform="translate(484,1)"/>
<path d="M0 0 C0.92522461 0.30599121 0.92522461 0.30599121 1.86914062 0.61816406 C14.21519001 4.71562103 25.36690354 9.91575627 34 20 C34.639375 20.7425 35.27875 21.485 35.9375 22.25 C38.09571167 27.83595962 38.05269091 34.39553307 35.6875 39.9375 C31.17045748 47.77351641 20.90554877 60.12724233 12 63 C8.91203802 62.84936771 7.51294887 62.51294887 5.3125 60.3125 C2.59120705 55.517841 1.71606494 50.61117478 1.01269531 45.22290039 C-0.44482706 32.05911963 -0.44482706 32.05911963 -7.7734375 21.5546875 C-14.56877699 17.45454595 -21.75656849 17.01004013 -29.44140625 18.4609375 C-38.57971174 21.16269738 -45.02676752 27.00229384 -50 35 C-56.83096731 48.66193462 -56.28753873 62.63425812 -51.72753906 76.94287109 C-46.41052 91.97683169 -37.09365394 104.8336047 -26.24462891 116.33886719 C-11.46959808 132.17257726 1.08061233 151.43606542 8 172 C8.33644531 172.93714844 8.67289063 173.87429688 9.01953125 174.83984375 C14.40337011 191.58137008 9.59992283 206.77717472 2.10546875 221.96484375 C-8.21336903 241.5875951 -25.01128328 255.85111588 -46 263 C-50.63548514 264.20253167 -55.28257049 265.17957748 -60 266 C-61.04542969 266.18691406 -62.09085937 266.37382813 -63.16796875 266.56640625 C-81.01060327 268.58529762 -103.67034428 269.52734223 -119 259 C-129.18493625 250.46631801 -136.33372471 240.18980432 -139 227 C-140.23123067 210.97381712 -135.15636348 201.84919363 -125.13671875 189.75 C-122.35922453 186.69537221 -120.87871188 185.16898305 -116.75 184.375 C-113.6876565 185.07098716 -112.97345107 185.65788225 -111 188 C-108.67074444 193.62903428 -107.58952105 199.19464483 -106.625 205.1875 C-104.16239274 220.07418952 -98.68706331 236.02335876 -86.6328125 245.94921875 C-78.16063857 251.82167576 -71.44778317 254.32566093 -61 253 C-57.42345373 251.68566811 -54.26284429 249.95061343 -51 248 C-50.2884375 247.69835937 -49.576875 247.39671875 -48.84375 247.0859375 C-46.51237792 245.71279886 -46.12360548 244.4262716 -45 242 C-43.79990696 240.68127707 -42.56712673 239.39195116 -41.3125 238.125 C-31.29648452 227.12200489 -28.147182 214.63500116 -28.82080078 200.00976562 C-30.61626723 179.87314468 -47.90840573 162.80051516 -60.2578125 148.12890625 C-81.34632836 122.97057385 -97.7713156 98.95219944 -96.26074219 64.94287109 C-94.51882569 45.28270114 -81.39900942 25.02306433 -66.9375 12.3125 C-48.04658908 -2.42452714 -22.971178 -8.08245152 0 0 Z " fill="#E4F2FA" transform="translate(260,332)"/>
<path d="M0 0 C4.25748788 8.51497576 -1.09485961 21.09507397 -3.82958984 29.57128906 C-11.15399216 51.41349045 -21.46419205 71.12091081 -33 91 C-33.88949171 92.54677795 -34.77882673 94.09364601 -35.66796875 95.640625 C-39.93565785 103.02379403 -44.367125 110.30025997 -48.9375 117.5 C-49.39850098 118.23718262 -49.85950195 118.97436523 -50.33447266 119.73388672 C-53.64889178 124.88296393 -53.64889178 124.88296393 -57 126 C-56.42694788 120.40844783 -55.39499318 115.3146976 -53.734375 109.953125 C-53.50489166 109.19650574 -53.27540833 108.43988647 -53.03897095 107.66033936 C-52.28469098 105.18745199 -51.51865897 102.71845332 -50.75 100.25 C-50.48600403 99.39696289 -50.22200806 98.54392578 -49.95001221 97.66503906 C-42.83457373 74.73188865 -35.0613662 51.94255496 -25.5625 29.875 C-24.99764893 28.56208984 -24.99764893 28.56208984 -24.42138672 27.22265625 C-20.76919803 19.02419467 -16.43744011 11.15142621 -10.5 4.375 C-9.7884375 3.53710938 -9.076875 2.69921875 -8.34375 1.8359375 C-5.39161811 -0.47656582 -3.65888401 -0.36799121 0 0 Z " fill="#0A8DDB" transform="translate(399,310)"/>
<path d="M0 0 C-1.67617765 10.10428215 -12.47095596 19.75116469 -20.41796875 25.5390625 C-31.4999767 33.3241695 -43.93732397 40.73003044 -58 39 C-61.5 37.4375 -61.5 37.4375 -64 35 C-65.125 31.5625 -65.125 31.5625 -65 28 C-54.93992438 12.69328207 -17.3379965 0 0 0 Z " fill="#048ADA" transform="translate(733,560)"/>
<path d="M0 0 C4.30008685 2.48449462 6.27818654 5.37829018 8 10 C8.76681167 15.9154043 7.30605311 20.17275682 4 25 C-0.44833019 29.70999667 -4.95948656 32.28436571 -11.4375 32.5 C-16.38115173 32.4273963 -16.38115173 32.4273963 -18.79296875 30.76171875 C-22.37873525 26.5239947 -23.3231769 22.57954874 -23.203125 17.1171875 C-22.77836673 12.68989941 -21.45555613 9.34430343 -18.16015625 6.30078125 C-12.40539974 1.87486982 -7.53951948 -1.20151705 0 0 Z " fill="#E2F0FA" transform="translate(516,355)"/>
<path d="M0 0 C1.27162597 3.8148779 0.64661571 5.3931275 -1 9 C-3.125 9.875 -3.125 9.875 -5 10 C-3.66511872 6.40608886 -2.03977277 3.24509304 0 0 Z " fill="#34A0E1" transform="translate(512,526)"/>
</svg>
